<svg width="30" height="31" viewBox="0 0 30 31" fill="none" xmlns="http://www.w3.org/2000/svg">
<path d="M6.37901 9.20532C5.99119 8.3619 6.86192 7.49117 7.70534 7.87899L14.0822 10.8112C14.3474 10.9331 14.6526 10.9331 14.9178 10.8112L21.2947 7.879C22.1381 7.49118 23.0088 8.3619 22.621 9.20532L19.6888 15.5822C19.5669 15.8474 19.5669 16.1526 19.6888 16.4178L22.621 22.7947C23.0088 23.6381 22.1381 24.5088 21.2947 24.121L14.9178 21.1888C14.6526 21.0669 14.3474 21.0669 14.0823 21.1888L7.70534 24.121C6.86192 24.5088 5.99119 23.6381 6.37901 22.7947L9.31124 16.4178C9.43317 16.1526 9.43317 15.8474 9.31124 15.5822L6.37901 9.20532Z" fill="#A5D8FF"/>
<path d="M13.5621 5.03445C13.8843 4.16383 15.1157 4.16383 15.4379 5.03445L17.9867 11.9225C18.0879 12.1962 18.3037 12.412 18.5775 12.5133L25.4655 15.0621C26.3361 15.3842 26.3361 16.6156 25.4655 16.9378L18.5775 19.4866C18.3037 19.5879 18.0879 19.8037 17.9867 20.0774L15.4379 26.9654C15.1157 27.836 13.8843 27.8361 13.5621 26.9654L11.0133 20.0774C10.9121 19.8037 10.6963 19.5879 10.4225 19.4866L3.53451 16.9378C2.66389 16.6156 2.66389 15.3842 3.53451 15.0621L10.4225 12.5133C10.6963 12.412 10.9121 12.1962 11.0133 11.9225L13.5621 5.03445Z" fill="#228BE6" fill-opacity="0.5"/>
</svg>
